<svg width="47" height="19" viewBox="0 0 47 19" fill="none" xmlns="http://www.w3.org/2000/svg">
<path d="M5.12597 18.766C4.58331 18.766 4.19464 18.6487 3.95997 18.414C3.72531 18.1647 3.60797 17.7027 3.60797 17.028C3.60797 16.5733 3.65197 16.0233 3.73997 15.378C3.82797 14.7327 3.98197 13.7573 4.20197 12.452C4.23131 12.276 4.34864 11.5647 4.55397 10.318C4.75931 9.05667 4.94264 7.73667 5.10397 6.35801C5.25064 5.18467 5.32397 4.30467 5.32397 3.71801C5.32397 3.05801 5.08197 2.72801 4.59797 2.72801C4.23131 2.72801 3.76931 2.92601 3.21197 3.32201C2.66931 3.70334 2.08264 4.31934 1.45197 5.17001C1.24664 5.44867 1.01931 5.588 0.769973 5.588C0.564639 5.588 0.381306 5.49267 0.219973 5.302C0.073306 5.09667 -2.73448e-05 4.86934 -2.73448e-05 4.62001C-2.73448e-05 4.37067 0.0439727 4.13601 0.131973 3.91601C0.219973 3.68134 0.381306 3.40267 0.615973 3.08001C1.33464 2.09734 2.13397 1.342 3.01397 0.814005C3.89397 0.271338 4.81797 4.76837e-06 5.78597 4.76837e-06C6.59264 4.76837e-06 7.19397 0.249338 7.58997 0.748006C8.00064 1.24667 8.20597 1.97267 8.20597 2.92601C8.20597 3.77667 8.08864 5.00867 7.85397 6.622C8.58731 4.45134 9.51864 2.80867 10.648 1.69401C11.7773 0.564672 13.1046 4.76837e-06 14.63 4.76837e-06C15.8326 4.76837e-06 16.7346 0.344671 17.336 1.034C17.952 1.70867 18.26 2.618 18.26 3.762C18.26 4.40734 18.1646 5.19201 17.974 6.116L16.632 12.408C16.4853 13.1413 16.412 13.772 16.412 14.3C16.412 14.916 16.5513 15.378 16.83 15.686C17.1233 15.994 17.5266 16.148 18.04 16.148C18.524 16.148 18.9933 15.9867 19.448 15.664C19.9173 15.3413 20.4673 14.806 21.098 14.058C21.274 13.8527 21.472 13.75 21.692 13.75C21.8826 13.75 22.0293 13.838 22.132 14.014C22.2493 14.19 22.308 14.432 22.308 14.74C22.308 15.312 22.1686 15.7667 21.89 16.104C21.1273 17.028 20.372 17.7027 19.624 18.128C18.876 18.5533 18.0913 18.766 17.27 18.766C16.0233 18.766 15.048 18.3993 14.344 17.666C13.64 16.918 13.288 15.9207 13.288 14.674C13.288 14.19 13.3246 13.662 13.398 13.09C13.486 12.518 13.6253 11.792 13.816 10.912L14.696 6.88601C14.7253 6.75401 14.7766 6.51934 14.85 6.18201C14.9233 5.84467 14.982 5.52934 15.026 5.23601C15.07 4.92801 15.092 4.62734 15.092 4.33401C15.092 3.86467 14.96 3.49067 14.696 3.21201C14.432 2.93334 14.058 2.79401 13.574 2.79401C12.694 2.79401 11.814 3.26334 10.934 4.20201C10.054 5.14067 9.23997 6.65867 8.49197 8.75601C7.74397 10.8387 7.15731 13.508 6.73197 16.764C6.62931 17.512 6.47531 18.0327 6.26997 18.326C6.07931 18.6193 5.69797 18.766 5.12597 18.766ZM31.7413 11.902C31.932 11.902 32.0787 11.9973 32.1813 12.188C32.284 12.3787 32.3353 12.6207 32.3353 12.914C32.3353 13.618 32.1227 14.036 31.6973 14.168C30.8173 14.476 29.8493 14.652 28.7933 14.696C28.5147 15.928 27.9647 16.918 27.1433 17.666C26.322 18.3993 25.3907 18.766 24.3493 18.766C23.4693 18.766 22.714 18.5533 22.0833 18.128C21.4673 17.7027 20.998 17.138 20.6753 16.434C20.3527 15.73 20.1913 14.9673 20.1913 14.146C20.1913 13.0313 20.404 12.0413 20.8293 11.176C21.2547 10.296 21.8413 9.61401 22.5893 9.13001C23.3373 8.63134 24.166 8.38201 25.0753 8.38201C26.19 8.38201 27.0847 8.77067 27.7593 9.54801C28.4487 10.3107 28.852 11.2567 28.9693 12.386C29.6587 12.342 30.48 12.1953 31.4333 11.946C31.5507 11.9167 31.6533 11.902 31.7413 11.902ZM24.5253 16.434C24.9947 16.434 25.398 16.2433 25.7353 15.862C26.0873 15.4807 26.322 14.9307 26.4393 14.212C25.9847 13.904 25.6327 13.5007 25.3833 13.002C25.1487 12.5033 25.0313 11.9753 25.0313 11.418C25.0313 11.1833 25.0533 10.9487 25.0973 10.714H24.9873C24.4007 10.714 23.9093 11 23.5133 11.572C23.132 12.1293 22.9413 12.9213 22.9413 13.948C22.9413 14.7547 23.0953 15.3707 23.4033 15.796C23.726 16.2213 24.1 16.434 24.5253 16.434ZM32.0091 18.766C31.4518 18.766 31.0558 18.4727 30.8211 17.886C30.6011 17.2993 30.4911 16.3607 30.4911 15.07C30.4911 13.1633 30.7624 11.352 31.3051 9.63601C31.4371 9.21067 31.6498 8.90267 31.9431 8.71201C32.2511 8.50667 32.6764 8.40401 33.2191 8.40401C33.5124 8.40401 33.7178 8.44067 33.8351 8.51401C33.9524 8.58734 34.0111 8.72667 34.0111 8.93201C34.0111 9.16667 33.9011 9.69467 33.6811 10.516C33.5344 11.1027 33.4171 11.616 33.3291 12.056C33.2411 12.496 33.1678 13.0387 33.1091 13.684C33.5931 12.4227 34.1358 11.396 34.7371 10.604C35.3384 9.81201 35.9251 9.24734 36.4971 8.91001C37.0838 8.57267 37.6191 8.40401 38.1031 8.40401C39.0564 8.40401 39.5331 8.88067 39.5331 9.83401C39.5331 10.406 39.3718 11.44 39.0491 12.936C38.7704 14.212 38.6311 15.0553 38.6311 15.466C38.6311 16.0527 38.8438 16.346 39.2691 16.346C39.5624 16.346 39.9071 16.17 40.3031 15.818C40.7138 15.4513 41.2564 14.8647 41.9311 14.058C42.1071 13.8527 42.3051 13.75 42.5251 13.75C42.7158 13.75 42.8624 13.838 42.9651 14.014C43.0824 14.19 43.1411 14.432 43.1411 14.74C43.1411 15.3267 43.0018 15.7813 42.7231 16.104C42.0924 16.8813 41.4104 17.5193 40.6771 18.018C39.9584 18.5167 39.1371 18.766 38.2131 18.766C37.4651 18.766 36.9004 18.5533 36.5191 18.128C36.1378 17.688 35.9471 17.0573 35.9471 16.236C35.9471 15.8253 36.0498 15.092 36.2551 14.036C36.4458 13.112 36.5411 12.474 36.5411 12.122C36.5411 11.8873 36.4604 11.77 36.2991 11.77C36.1084 11.77 35.8371 12.0193 35.4851 12.518C35.1478 13.002 34.7958 13.6473 34.4291 14.454C34.0771 15.2607 33.7911 16.1113 33.5711 17.006C33.4098 17.6953 33.2191 18.1647 32.9991 18.414C32.7938 18.6487 32.4638 18.766 32.0091 18.766ZM44.3972 6.95201C43.7812 6.95201 43.3192 6.81267 43.0112 6.53401C42.7032 6.24067 42.5492 5.83734 42.5492 5.32401C42.5492 4.81067 42.7472 4.38534 43.1432 4.04801C43.5538 3.69601 44.0598 3.52001 44.6612 3.52001C45.2038 3.52001 45.6438 3.65201 45.9812 3.91601C46.3185 4.18001 46.4872 4.55401 46.4872 5.03801C46.4872 5.62467 46.2965 6.094 45.9152 6.44601C45.5338 6.78334 45.0278 6.95201 44.3972 6.95201ZM42.2852 18.766C41.8158 18.766 41.4932 18.6707 41.3172 18.48C41.1412 18.2893 41.0532 17.9887 41.0532 17.578C41.0532 17.4607 41.0678 17.2553 41.0972 16.962C41.3318 14.278 41.7205 11.836 42.2632 9.63601C42.3805 9.18134 42.5712 8.86601 42.8352 8.69001C43.1138 8.49934 43.5538 8.40401 44.1552 8.40401C44.7858 8.40401 45.1012 8.66067 45.1012 9.17401C45.1012 9.24734 45.0865 9.38667 45.0572 9.59201C44.3972 12.7307 44.0012 15.3633 43.8692 17.49C43.8398 17.9593 43.7005 18.2893 43.4512 18.48C43.2018 18.6707 42.8132 18.766 42.2852 18.766Z" fill="#3D6177"/>
</svg>
